<?xml version="1.0" encoding="UTF-8"?>
<svg version="1.1" xmlns="http://www.w3.org/2000/svg" width="524" height="480">
<path d="M0 0 C0.56380371 0.44811035 1.12760742 0.8962207 1.70849609 1.35791016 C14.80385664 11.83652804 26.75973948 23.71391841 37 37 C37.97963588 38.22852918 38.96016913 39.45634311 39.94140625 40.68359375 C93.31123263 108.13202632 118.83511908 197.15932773 148 394 C148.05647705 394.67728149 148.1129541 395.35456299 148.17114258 396.05236816 C149.17951138 408.41534137 149 420.5284735 149 433 C-22.6 433 -194.2 433 -371 433 C-371 413.32357701 -371 413.32357701 -370.703125 406.76953125 C-370.66985107 405.98730698 -370.63657715 405.2050827 -370.60229492 404.39915466 C-370.49126947 401.86992603 -370.37217448 399.34121373 -370.25 396.8125 C-370.20709839 395.9193811 -370.16419678 395.02626221 -370.11999512 394.1060791 C-366.92353021 329.0313096 -358.36499301 264.33574823 -343 201 C-342.83391235 200.31266785 -342.66782471 199.62533569 -342.4967041 198.91717529 C-327.93769094 138.88373627 -305.15883455 77.48530776 -266 29 C-265.37689941 28.22245361 -265.37689941 28.22245361 -264.74121094 27.42919922 C-253.38658095 13.33334849 -240.70487015 0.58912688 -226 -10 C-225.40219727 -10.43151367 -224.80439453 -10.86302734 -224.18847656 -11.30761719 C-156.78818232 -59.35854466 -63.23969398 -50.74496036 0 0 Z " fill="#4F6AEC" transform="translate(373,45)"/>
<path d="M0 0 C0.56380371 0.44811035 1.12760742 0.8962207 1.70849609 1.35791016 C14.80385664 11.83652804 26.75973948 23.71391841 37 37 C37.97963588 38.22852918 38.96016913 39.45634311 39.94140625 40.68359375 C93.31123263 108.13202632 118.83511908 197.15932773 148 394 C148.05647705 394.67728149 148.1129541 395.35456299 148.17114258 396.05236816 C149.17951138 408.41534137 149 420.5284735 149 433 C127.88 433 106.76 433 85 433 C83.625 411.25 83.625 411.25 83.20556641 404.52441406 C77.67116243 317.39671551 61.3694257 221.9952434 -22.90625 109.59375 C-41.37553062 93.79642114 -63.54662771 83.61173702 -87 78 C-88.25167969 77.67902344 -89.50335938 77.35804687 -90.79296875 77.02734375 C-109.9856256 72.82100203 -133.05328034 72.90655972 -152 78 C-153.22589844 78.2784375 -154.45179688 78.556875 -155.71484375 78.84375 C-177.21659966 83.99174522 -195.87585181 95.03935017 -212 110 C-212.56428711 110.52045898 -213.12857422 111.04091797 -213.70996094 111.57714844 C-229.18715504 126.01850133 -240.58155637 142.66980594 -251 161 C-251.36931641 161.63550781 -251.73863281 162.27101562 -252.11914062 162.92578125 C-268.00125598 190.31711596 -277.7648867 221.377085 -285.24755859 251.96679688 C-285.9128082 254.64851688 -286.61074395 257.31730209 -287.33203125 259.984375 C-302.38927868 316.24442269 -304.76123643 375.16493624 -308 433 C-328.79 433 -349.58 433 -371 433 C-371 413.32357701 -371 413.32357701 -370.703125 406.76953125 C-370.66985107 405.98730698 -370.63657715 405.2050827 -370.60229492 404.39915466 C-370.49126947 401.86992603 -370.37217448 399.34121373 -370.25 396.8125 C-370.20709839 395.9193811 -370.16419678 395.02626221 -370.11999512 394.1060791 C-366.92353021 329.0313096 -358.36499301 264.33574823 -343 201 C-342.83391235 200.31266785 -342.66782471 199.62533569 -342.4967041 198.91717529 C-327.93769094 138.88373627 -305.15883455 77.48530776 -266 29 C-265.37689941 28.22245361 -265.37689941 28.22245361 -264.74121094 27.42919922 C-253.38658095 13.33334849 -240.70487015 0.58912688 -226 -10 C-225.40219727 -10.43151367 -224.80439453 -10.86302734 -224.18847656 -11.30761719 C-156.78818232 -59.35854466 -63.23969398 -50.74496036 0 0 Z " fill="#F15151" transform="translate(373,45)"/>
<path d="M0 0 C1.92102539 -0.01160156 1.92102539 -0.01160156 3.88085938 -0.0234375 C15.23289858 -0.00030548 25.67627907 1.26972132 36.3125 5.3125 C37.5200293 5.76713623 37.5200293 5.76713623 38.75195312 6.23095703 C72.35601983 19.33812939 95.33008184 47.29402286 112.0625 78.25 C112.4229541 78.91435059 112.7834082 79.57870117 113.15478516 80.26318359 C128.94143801 109.71499268 138.6425768 141.80339391 146.0625 174.25 C146.29420898 175.2493457 146.52591797 176.24869141 146.76464844 177.27832031 C149.97554727 191.36195441 152.03186527 205.56014068 153.875 219.875 C153.98636292 220.7361441 154.09772583 221.59728821 154.21246338 222.48452759 C154.52955528 224.9602881 154.83886557 227.43686754 155.14453125 229.9140625 C155.28473946 231.02041801 155.28473946 231.02041801 155.42778015 232.14912415 C155.96293832 236.60284251 156.0625 240.71747373 156.0625 245.25 C61.6825 245.25 -32.6975 245.25 -129.9375 245.25 C-129.9375 211.52922316 -129.9375 211.52922316 -128.1875 195.5625 C-128.00341011 193.79739802 -127.8196599 192.03226058 -127.63623047 190.26708984 C-121.46830394 131.99594012 -107.88809978 59.68672138 -60.0625 20 C-51.83654253 13.76586242 -43.45045054 8.55502834 -33.8125 4.875 C-33.1922998 4.6363623 -32.57209961 4.39772461 -31.93310547 4.15185547 C-21.4581936 0.38611512 -11.04734538 -0.06651688 0 0 Z " fill="#E9DD4B" transform="translate(253.9375,232.75)"/>
</svg>
