<?xml version="1.0" encoding="UTF-8"?>
<svg version="1.1" xmlns="http://www.w3.org/2000/svg" width="524" height="480">
<path d="M0 0 C0.56380371 0.44811035 1.12760742 0.8962207 1.70849609 1.35791016 C14.80385664 11.83652804 26.75973948 23.71391841 37 37 C37.97963588 38.22852918 38.96016913 39.45634311 39.94140625 40.68359375 C93.31123263 108.13202632 118.83511908 197.15932773 148 394 C148.05647705 394.67728149 148.1129541 395.35456299 148.17114258 396.05236816 C149.17951138 408.41534137 149 420.5284735 149 433 C-22.6 433 -194.2 433 -371 433 C-371 413.32357701 -371 413.32357701 -370.703125 406.76953125 C-370.66985107 405.98730698 -370.63657715 405.2050827 -370.60229492 404.39915466 C-370.49126947 401.86992603 -370.37217448 399.34121373 -370.25 396.8125 C-370.20709839 395.9193811 -370.16419678 395.02626221 -370.11999512 394.1060791 C-366.92353021 329.0313096 -358.36499301 264.33574823 -343 201 C-342.83391235 200.31266785 -342.66782471 199.62533569 -342.4967041 198.91717529 C-327.93769094 138.88373627 -305.15883455 77.48530776 -266 29 C-265.37689941 28.22245361 -265.37689941 28.22245361 -264.74121094 27.42919922 C-253.38658095 13.33334849 -240.70487015 0.58912688 -226 -10 C-225.40219727 -10.43151367 -224.80439453 -10.86302734 -224.18847656 -11.30761719 C-156.78818232 -59.35854466 -63.23969398 -50.74496036 0 0 Z " fill="#566FE4" transform="translate(373,45)"/>
<path d="M0 0 C0.56380371 0.44811035 1.12760742 0.8962207 1.70849609 1.35791016 C14.80385664 11.83652804 26.75973948 23.71391841 37 37 C37.97963588 38.22852918 38.96016913 39.45634311 39.94140625 40.68359375 C93.31123263 108.13202632 118.83511908 197.15932773 148 394 C148.05647705 394.67728149 148.1129541 395.35456299 148.17114258 396.05236816 C149.17951138 408.41534137 149 420.5284735 149 433 C127.88 433 106.76 433 85 433 C84.608125 426.338125 84.21625 419.67625 83.8125 412.8125 C80.95568411 367.73757476 75.33633254 323.41275182 64.82617188 279.47021484 C64.06725665 276.28250177 63.3350085 273.08994778 62.609375 269.89453125 C56.63806062 244.18374529 47.79411632 219.06656174 37 195 C36.60490234 194.10958008 36.20980469 193.21916016 35.80273438 192.30175781 C26.89654734 172.38309237 16.18572974 153.76612883 2.44433594 136.78662109 C1.13663449 135.16901474 -0.14793919 133.53277869 -1.4296875 131.89453125 C-23.32285172 104.27486323 -52.99423855 86.35074763 -87 78 C-87.68400879 77.82065918 -88.36801758 77.64131836 -89.07275391 77.45654297 C-121.75603748 69.06702817 -160.0667723 75.32997642 -188.875 92.3125 C-207.32396026 103.76706069 -223.67165114 119.11634618 -236 137 C-236.43086914 137.62422852 -236.86173828 138.24845703 -237.30566406 138.89160156 C-260.716193 173.20797001 -275.41780418 211.78203937 -285.24755859 251.96679688 C-285.9128082 254.64851688 -286.61074395 257.31730209 -287.33203125 259.984375 C-293.85391412 284.34770125 -297.49941442 309.47927282 -300.56274414 334.48022461 C-300.86164773 336.88630671 -301.17396003 339.29075098 -301.49780273 341.69360352 C-302.95787954 352.70764609 -303.82391043 363.72869301 -304.5625 374.8125 C-304.62692291 375.75790649 -304.69134583 376.70331299 -304.75772095 377.67736816 C-306.00575249 396.12026417 -306.60842057 414.51745074 -307 433 C-328.12 433 -349.24 433 -371 433 C-371 413.32357701 -371 413.32357701 -370.703125 406.76953125 C-370.66985107 405.98730698 -370.63657715 405.2050827 -370.60229492 404.39915466 C-370.49126947 401.86992603 -370.37217448 399.34121373 -370.25 396.8125 C-370.20709839 395.9193811 -370.16419678 395.02626221 -370.11999512 394.1060791 C-366.92353021 329.0313096 -358.36499301 264.33574823 -343 201 C-342.83391235 200.31266785 -342.66782471 199.62533569 -342.4967041 198.91717529 C-327.93769094 138.88373627 -305.15883455 77.48530776 -266 29 C-265.37689941 28.22245361 -265.37689941 28.22245361 -264.74121094 27.42919922 C-253.38658095 13.33334849 -240.70487015 0.58912688 -226 -10 C-225.40219727 -10.43151367 -224.80439453 -10.86302734 -224.18847656 -11.30761719 C-156.78818232 -59.35854466 -63.23969398 -50.74496036 0 0 Z " fill="#E95A58" transform="translate(373,45)"/>
<path d="M0 0 C1.92102539 -0.01160156 1.92102539 -0.01160156 3.88085938 -0.0234375 C15.23289858 -0.00030548 25.67627907 1.26972132 36.3125 5.3125 C37.5200293 5.76713623 37.5200293 5.76713623 38.75195312 6.23095703 C72.35601983 19.33812939 95.33008184 47.29402286 112.0625 78.25 C112.4229541 78.91435059 112.7834082 79.57870117 113.15478516 80.26318359 C128.94143801 109.71499268 138.6425768 141.80339391 146.0625 174.25 C146.29420898 175.2493457 146.52591797 176.24869141 146.76464844 177.27832031 C149.97554727 191.36195441 152.03186527 205.56014068 153.875 219.875 C153.98636292 220.7361441 154.09772583 221.59728821 154.21246338 222.48452759 C154.52955528 224.9602881 154.83886557 227.43686754 155.14453125 229.9140625 C155.28473946 231.02041801 155.28473946 231.02041801 155.42778015 232.14912415 C155.96293832 236.60284251 156.0625 240.71747373 156.0625 245.25 C61.6825 245.25 -32.6975 245.25 -129.9375 245.25 C-129.9375 211.52922316 -129.9375 211.52922316 -128.1875 195.5625 C-128.00341011 193.79739802 -127.8196599 192.03226058 -127.63623047 190.26708984 C-121.46830394 131.99594012 -107.88809978 59.68672138 -60.0625 20 C-51.83654253 13.76586242 -43.45045054 8.55502834 -33.8125 4.875 C-33.1922998 4.6363623 -32.57209961 4.39772461 -31.93310547 4.15185547 C-21.4581936 0.38611512 -11.04734538 -0.06651688 0 0 Z " fill="#E1D653" transform="translate(253.9375,232.75)"/>
</svg>
